<svg id="logo-30" width="152" height="39" viewBox="0 0 152 39" fill="none" xmlns="http://www.w3.org/2000/svg"> <path d="M53.0611 24.7767H61.9471V22.357H55.996V10.8953H53.0611V24.7767Z" class="cneutral" fill="#3C2979"></path> <path d="M67.9678 24.9801C71.1264 24.9801 73.092 22.8179 73.092 19.6119C73.092 16.3855 71.1264 14.2301 67.9678 14.2301C64.8093 14.2301 62.8437 16.3855 62.8437 19.6119C62.8437 22.8179 64.8093 24.9801 67.9678 24.9801ZM67.9814 22.7433C66.5241 22.7433 65.7785 21.408 65.7785 19.5915C65.7785 17.775 66.5241 16.433 67.9814 16.433C69.4116 16.433 70.1571 17.775 70.1571 19.5915C70.1571 21.408 69.4116 22.7433 67.9814 22.7433Z" class="cneutral" fill="#3C2979"></path> <path d="M79.0873 28.8978C82.0629 28.8978 84.1776 27.5421 84.1776 24.8784V14.3657H81.3105V16.1144H81.2021C80.8157 15.2671 79.9685 14.2301 78.2265 14.2301C75.9423 14.2301 74.0106 16.006 74.0106 19.5509C74.0106 23.0144 75.8881 24.6276 78.2333 24.6276C79.8939 24.6276 80.8225 23.7939 81.2021 22.9331H81.3241V24.8377C81.3241 26.2679 80.409 26.8237 79.1551 26.8237C77.8808 26.8237 77.2369 26.2679 76.9997 25.6375L74.3292 25.9968C74.6748 27.637 76.2812 28.8978 79.0873 28.8978ZM79.1483 22.4586C77.7317 22.4586 76.959 21.3335 76.959 19.5373C76.959 17.7682 77.7182 16.5279 79.1483 16.5279C80.5514 16.5279 81.3376 17.714 81.3376 19.5373C81.3376 21.3741 80.5378 22.4586 79.1483 22.4586Z" class="cneutral" fill="#3C2979"></path> <path d="M90.6067 24.9801C93.7653 24.9801 95.7309 22.8179 95.7309 19.6119C95.7309 16.3855 93.7653 14.2301 90.6067 14.2301C87.4482 14.2301 85.4825 16.3855 85.4825 19.6119C85.4825 22.8179 87.4482 24.9801 90.6067 24.9801ZM90.6203 22.7433C89.163 22.7433 88.4174 21.408 88.4174 19.5915C88.4174 17.775 89.163 16.433 90.6203 16.433C92.0504 16.433 92.796 17.775 92.796 19.5915C92.796 21.408 92.0504 22.7433 90.6203 22.7433Z" class="cneutral" fill="#3C2979"></path> <path d="M97.0358 24.7767H99.9232V14.3657H97.0358V24.7767ZM98.4863 13.0236C99.3471 13.0236 100.052 12.3662 100.052 11.5596C100.052 10.7598 99.3471 10.1023 98.4863 10.1023C97.6323 10.1023 96.9273 10.7598 96.9273 11.5596C96.9273 12.3662 97.6323 13.0236 98.4863 13.0236Z" class="cneutral" fill="#3C2979"></path> <path d="M101.664 28.6809H104.551V23.1093H104.639C105.039 23.9769 105.913 24.9462 107.594 24.9462C109.967 24.9462 111.817 23.0687 111.817 19.5847C111.817 16.006 109.885 14.2301 107.601 14.2301C105.859 14.2301 105.026 15.2671 104.639 16.1144H104.51V14.3657H101.664V28.6809ZM104.49 19.5712C104.49 17.714 105.276 16.5279 106.679 16.5279C108.11 16.5279 108.869 17.7682 108.869 19.5712C108.869 21.3877 108.096 22.6484 106.679 22.6484C105.29 22.6484 104.49 21.4284 104.49 19.5712Z" class="cneutral" fill="#3C2979"></path> <path d="M121.832 17.3344C121.574 15.4163 120.029 14.2301 117.399 14.2301C114.735 14.2301 112.98 15.4637 112.986 17.47C112.98 19.029 113.962 20.0389 115.996 20.4456L117.799 20.8048C118.707 20.9878 119.121 21.3199 119.134 21.8418C119.121 22.4586 118.45 22.8992 117.44 22.8992C116.409 22.8992 115.725 22.4586 115.549 21.6114L112.709 21.7605C112.98 23.7532 114.674 24.9801 117.433 24.9801C120.13 24.9801 122.062 23.6041 122.069 21.5504C122.062 20.0457 121.079 19.1442 119.06 18.7307L117.175 18.3511C116.206 18.141 115.847 17.8089 115.854 17.3073C115.847 16.6838 116.552 16.2771 117.446 16.2771C118.45 16.2771 119.046 16.8261 119.188 17.4971L121.832 17.3344Z" class="cneutral" fill="#3C2979"></path> <path d="M129.991 20.3439C129.998 21.7402 129.042 22.4722 128.005 22.4722C126.914 22.4722 126.209 21.7063 126.202 20.4794V14.3657H123.315V20.9946C123.321 23.4279 124.745 24.9123 126.839 24.9123C128.405 24.9123 129.53 24.1057 129.998 22.8856H130.106V24.7767H132.878V14.3657H129.991V20.3439Z" class="cneutral" fill="#3C2979"></path> <path d="M134.615 24.7767H137.503V18.5274C137.503 17.3751 138.235 16.6092 139.197 16.6092C140.146 16.6092 140.783 17.2599 140.783 18.2834V24.7767H143.583V18.4189C143.583 17.3412 144.2 16.6092 145.25 16.6092C146.172 16.6092 146.863 17.1853 146.863 18.3444V24.7767H149.744V17.775C149.744 15.5179 148.402 14.2301 146.463 14.2301C144.938 14.2301 143.752 15.0096 143.325 16.2025H143.217C142.885 14.996 141.82 14.2301 140.39 14.2301C138.987 14.2301 137.923 14.9757 137.489 16.2025H137.367V14.3657H134.615V24.7767Z" class="cneutral" fill="#3C2979"></path> <path d="M17.123 2L26.1218 2L22.5097 12.0943C16.1521 13.2115 11.2895 19.3625 11.2895 26.783C11.2895 30.1305 12.2791 33.2197 13.949 35.7049L2.00006 35.7049L12.9237 5.17808C13.6105 3.25863 15.2736 2 17.123 2Z" class="ccompli1" fill="#341492"></path> <path d="M26.1216 2L23.583 9.09426L22.8181 2L26.1216 2Z" fill="black" fill-opacity="0.3"></path> <path d="M31.8169 2L22.8181 2L26.415 12.0517C32.8991 13.0452 37.8942 19.262 37.8942 26.783C37.8942 30.1305 36.9046 33.2197 35.2347 35.7049L46.9398 35.7049L36.0162 5.17809C35.3294 3.25863 33.6663 2 31.8169 2Z" class="ccustom" fill="#4C28B5"></path> <path d="M15.5181 34.7334C13.9803 32.5434 13.0633 29.7829 13.0633 26.7829C13.0633 19.6655 18.2249 13.8958 24.592 13.8958C30.9592 13.8958 36.1208 19.6655 36.1208 26.7829C36.1208 29.7829 35.2038 32.5434 33.666 34.7334C31.1415 32.854 27.9987 31.7395 24.592 31.7395C21.1854 31.7395 18.0426 32.854 15.5181 34.7334Z" class="ccustom" fill="#4C28B5"></path></svg>